HIERARCHY
ROOT Hips
{
OFFSET 0.000000 0.000000 0.000000
CHANNELS 6 Xposition Yposition Zposition Zrotation Xrotation Yrotation 
JOINT Spine
{
OFFSET -0.000000 8.110740 0.000000
CHANNELS 3 Zrotation Xrotation Yrotation 
JOINT Spine1
{
OFFSET -0.000000 21.937449 0.000000
CHANNELS 3 Zrotation Xrotation Yrotation 
JOINT Neck
{
OFFSET -0.000000 21.847355 1.986123
CHANNELS 3 Zrotation Xrotation Yrotation 
JOINT Head
{
OFFSET -0.000000 13.847605 -1.978229
CHANNELS 3 Zrotation Xrotation Yrotation 
End Site
{
OFFSET -0.000000 24.727865 0.000000
}
}
}
JOINT LeftShoulder
{
OFFSET 3.988886 19.638126 -0.276534
CHANNELS 3 Zrotation Xrotation Yrotation 
JOINT LeftArm
{
OFFSET 12.253303 0.000000 0.000000
CHANNELS 3 Zrotation Xrotation Yrotation 
JOINT LeftForeArm
{
OFFSET 31.662882 0.000000 0.000000
CHANNELS 3 Zrotation Xrotation Yrotation 
JOINT LeftHand
{
OFFSET 22.578665 0.000000 0.000000
CHANNELS 3 Zrotation Xrotation Yrotation 
End Site
{
OFFSET 14.836720 0.000000 0.000000
}
}
}
}
}
JOINT RightShoulder
{
OFFSET -3.903774 19.638126 -0.276534
CHANNELS 3 Zrotation Xrotation Yrotation 
JOINT RightArm
{
OFFSET -12.253303 0.000000 0.000000
CHANNELS 3 Zrotation Xrotation Yrotation 
JOINT RightForeArm
{
OFFSET -31.662882 0.000000 0.000000
CHANNELS 3 Zrotation Xrotation Yrotation 
JOINT RightHand
{
OFFSET -22.578665 0.000000 0.000000
CHANNELS 3 Zrotation Xrotation Yrotation 
End Site
{
OFFSET -14.836720 0.000000 0.000000
}
}
}
}
}
}
}
JOINT LeftUpLeg
{
OFFSET 9.891147 0.000000 0.000000
CHANNELS 3 Zrotation Xrotation Yrotation 
JOINT LeftLeg
{
OFFSET -0.000000 -39.041359 0.000000
CHANNELS 3 Zrotation Xrotation Yrotation 
JOINT LeftFoot
{
OFFSET -0.000000 -42.395027 0.000000
CHANNELS 3 Zrotation Xrotation Yrotation 
JOINT LeftToeBase
{
OFFSET -0.000000 -6.429245 14.836720
CHANNELS 3 Zrotation Xrotation Yrotation 
End Site
{
OFFSET -0.000000 0.000000 3.956458
}
}
}
}
}
JOINT RightUpLeg
{
OFFSET -9.891147 0.000000 0.000000
CHANNELS 3 Zrotation Xrotation Yrotation 
JOINT RightLeg
{
OFFSET -0.000000 -39.041359 0.000000
CHANNELS 3 Zrotation Xrotation Yrotation 
JOINT RightFoot
{
OFFSET -0.000000 -42.395027 0.000000
CHANNELS 3 Zrotation Xrotation Yrotation 
JOINT RightToeBase
{
OFFSET -0.000000 -6.429245 14.836720
CHANNELS 3 Zrotation Xrotation Yrotation 
End Site
{
OFFSET -0.000000 0.000000 3.956458
}
}
}
}
}
}
MOTION
Frames:    6
Frame Time:    0.008333
-25.925493    41.008465    -13.931627    104.109693    -75.603856    129.935002    -16.099095    83.930606    51.181673    -20.531971    17.290281    71.171334    18.453721    199.197278    57.492183    114.293943    -6.513065    6.830586    16.382515    12.015563    12.845826    -46.737705    -1.027613    -10.350368    22.671429    -18.664804    -78.688347    11.718153    -47.975075    7.485681    -0.119986    22.720722    -0.247178    55.832928    46.791748    -28.662086    -10.881739    -14.009918    104.417419    104.135574    -68.102905    98.242020    15.552494    -49.558998    -2.183862    1.778383    51.742954    -14.975842    -7.331329    -15.168015    -1.955186    0.345031    1.207056    -3.341825    -11.885144    -2.318854    3.177641    -9.293794    49.314705    -26.361795    1.388760    12.322415    26.224609    0.612543    0.505381    -4.366940    
-26.239590    40.853657    -14.017536    114.095539    -68.081935    135.579607    -9.418342    89.318224    54.063148    -19.639455    29.413950    71.244828    15.431216    197.676574    59.536209    115.609420    1.051931    4.531417    15.076424    11.561659    12.469136    -46.316475    0.445711    -10.737827    21.517458    -18.946049    -82.575920    13.512513    -46.406677    9.108020    -0.374395    21.862038    0.801065    54.108181    47.633560    -27.143270    -11.694796    -15.426888    105.795258    106.339844    -67.976852    101.346260    15.517424    -50.298473    -2.189817    1.729286    52.139763    -14.942258    -7.523994    -14.793487    -2.300807    0.348224    1.192933    -3.376716    -12.625414    -0.050899    2.722914    -8.366796    46.854443    -26.114874    0.629993    13.717329    25.056149    0.619446    0.783286    -4.342551    
-26.561201    40.691876    -14.103609    123.574785    -63.376877    139.880258    -3.916121    95.860662    53.614474    -23.683842    41.167399    66.904020    10.119694    194.446131    60.366250    117.510730    5.492654    2.033022    13.923807    11.174678    11.977116    -45.844006    1.959011    -11.253378    20.438135    -19.153181    -86.208069    14.544901    -45.121494    10.130639    -0.613523    20.845055    1.884215    51.784496    48.198605    -25.118940    -12.487454    -16.782856    106.857231    110.352997    -67.845398    106.937279    15.661325    -50.965923    -1.862939    1.907509    52.571445    -15.259933    -7.697432    -14.436299    -2.568250    0.351423    1.187033    -3.409401    -13.282323    2.150357    2.318012    -7.599067    44.308353    -25.612808    0.291014    15.329330    23.648073    0.641513    1.122073    -4.407681    
-26.891348    40.522880    -14.187039    131.285593    -60.915947    141.588664    0.892450    102.612336    51.084228    -32.234040    50.165583    60.293764    4.210140    190.384568    59.473640    119.210694    6.988632    -0.609164    12.929874    10.859853    11.378935    -45.359577    3.476765    -11.911094    19.435757    -19.292063    -89.567230    14.961662    -43.660191    10.599191    -0.838420    19.674150    3.001541    48.878746    48.417881    -22.622599    -13.331743    -18.123106    107.518326    116.892609    -68.167015    114.593750    15.965191    -51.556370    -1.290011    2.230827    53.018158    -15.798023    -7.877819    -14.091069    -2.790773    0.355161    1.188534    -3.445212    -13.865132    4.290189    1.884636    -7.043919    41.690926    -24.802059    0.475279    17.134666    21.924883    0.680331    1.449919    -4.585933    
-27.231710    40.346359    -14.264642    136.516041    -59.575128    140.483401    4.888182    108.835349    48.363771    -41.806185    54.390902    55.239261    -0.277131    187.161940    56.715391    120.159288    7.955698    -3.752488    12.072085    10.614362    10.705235    -44.865562    4.985806    -12.773614    18.483055    -19.407251    -92.846962    14.481482    -40.817528    11.121140    -1.062332    18.359329    4.169684    45.480900    48.238434    -19.750000    -14.183599    -19.282782    107.552353    124.007309    -68.307991    122.663643    16.412727    -52.070293    -0.556227    2.611599    53.470013    -16.421261    -8.082196    -13.752588    -3.004308    0.359550    1.196185    -3.485527    -14.373055    6.362442    1.334997    -6.729383    39.045597    -23.588181    1.201160    19.014107    19.816799    0.738989    1.800776    -4.882388    
-27.583420    40.161827    -14.331772    138.004709    -59.957996    137.715374    7.535177    112.271941    44.692235    -50.295993    58.234485    49.910482    -1.227694    185.570459    54.505091    120.207294    9.026754    -6.549247    11.246044    10.447360    9.935823    -44.036415    7.249915    -14.072783    18.526485    -20.226839    -95.121895    14.822233    -38.756966    11.837283    -1.383870    16.978577    5.461254    41.777794    47.595020    -16.597588    -14.998041    -20.109694    106.808098    129.858765    -68.186127    129.420105    16.979429    -52.510445    0.281466    3.039250    53.922077    -17.054697    -8.330414    -13.414764    -3.264092    0.363716    1.204820    -3.523346    -14.786772    8.361887    0.613230    -6.641047    36.424816    -21.918634    2.405272    20.780458    17.321236    0.816165    2.266790    -5.253768    
